<?xml version="1.0" encoding="utf-8"?>
<!DOCTYPE svg PUBLIC "-//W3C//DTD SVG 1.1//EN" "http://www.w3.org/Graphics/SVG/1.1/DTD/svg11.dtd">
<svg version="1.1" xmlns="http://www.w3.org/2000/svg" xmlns:xlink="http://www.w3.org/1999/xlink" width="462px" height="384px" viewBox="60 226 462 384" fill="none" stroke="#ff207e" stroke-width="24">
  <polyline points="233.747,388.51 257.932,407.073 297.347,437.848 349.657,421.669 395.823,494.983 328.639,529.151 268.804,488.317 268.804,488.317 233.437,498.298 207.561,474.854 133.217,490.779 82.885,437.163 92.996,324.595 92.996,324.595 92.996,324.595 171.252,264.088 257.932,247.868 382.8,261.678 382.8,261.678 463.613,317.553 497.5,385.774 463.116,466.708 378.304,467.162 349.657,421.669 297.347,437.848 297.347,437.848 297.347,437.848 297.347,437.848 257.932,407.073 257.932,407.073 "/>
  <path d="M201.275,497.921c1.036,2.253,1.318,3.799,2.222,8.246c1.103,5.446,3.083,13.97,1.973,19.25c-0.977,4.645-6.229,14.16-9.95,20.848c-4.062,7.3-11.05,17.527-11.05,17.527c-4.519,6.553-9.375,12.25-9.375,12.25l0,0c0,0,20.471-5.629,31.938-9.698C213.637,564,227.304,555,227.304,555l9.333-6.5l10.167-7.333l0,0l0,0c0,0,6.478-5.743,8.333-7.333c2.447-2.098,5.882-7.191,6.5-8c3.828-5.008,4.621-6.208,6-8.167"/>
</svg>
